<svg xmlns="http://www.w3.org/2000/svg" width="410" height="404" viewBox="0 0 410 404" fill="none"><path d="M399.641 59.5246L215.643 388.545C211.844 395.338 202.084 395.378 198.228 388.618L10.6607 59.5847C6.38087 52.0847 12.7674 43.2941 21.3335 44.7752L205.379 76.482C206.842 76.7335 208.34 76.7314 209.802 76.4758L389.652 44.8137C398.20 43.3139 404.590 52.0796 399.641 59.5246Z" fill="url(#paint0_linear)"/><path d="M292.965 1.5744L156.801 28.2552C154.563 28.6937 152.906 30.5903 152.771 32.8664L144.28 177.089C144.061 180.673 147.379 183.552 150.859 182.7L188.361 173.541C192.128 172.622 195.559 175.947 194.821 179.760L184.361 233.882C183.598 237.833 187.243 241.184 191.087 240.106L215.24 233.3C219.089 232.222 222.737 235.577 221.968 239.532L204.485 328.85C203.401 334.406 210.943 337.406 214.031 332.567L216.001 329.472L322.943 122.372C324.925 118.517 321.674 114.043 317.406 114.833L279.036 122.108C275.209 122.828 271.98 119.288 273.048 115.556L296.706 32.2854C297.774 28.5455 294.535 25 290.702 25.7134L292.965 1.5744Z" fill="url(#paint1_linear)"/><defs><linearGradient id="paint0_linear" x1="6.00" y1="32.99" x2="235.00" y2="344" gradientUnits="userSpaceOnUse"><stop stop-color="#41D1FF"/><stop offset="1" stop-color="#BD34FE"/></linearGradient><linearGradient id="paint1_linear" x1="194.65" y1="8.816" x2="236.29" y2="292.97" gradientUnits="userSpaceOnUse"><stop stop-color="#FFEA83"/><stop offset="0.083" stop-color="#FFDD35"/><stop offset="1" stop-color="#FFA800"/></linearGradient></defs></svg>
